<svg width="680" viewBox="0 0 680 1060" xmlns="http://www.w3.org/2000/svg" role="img">
  <title>Kiến trúc Agent Bomberland</title>
  <defs>
    <marker id="arrow" viewBox="0 0 10 10" refX="8" refY="5" markerWidth="6" markerHeight="6" orient="auto-start-reverse">
      <path d="M2 1L8 5L2 9" fill="none" stroke="#888" stroke-width="1.5" stroke-linecap="round" stroke-linejoin="round"/>
    </marker>
    <marker id="arrow-dep" viewBox="0 0 10 10" refX="8" refY="5" markerWidth="5" markerHeight="5" orient="auto-start-reverse">
      <path d="M2 1L8 5L2 9" fill="none" stroke="#aaa" stroke-width="1.2" stroke-linecap="round" stroke-linejoin="round"/>
    </marker>
  </defs>

  <rect width="680" height="1060" fill="#1a1a2e"/>

  <!-- ENTRY -->
  <rect x="220" y="18" width="240" height="40" rx="20" fill="#3a3a5c" stroke="#6666aa" stroke-width="0.8"/>
  <text x="340" y="43" text-anchor="middle" fill="#ccc" font-size="13" font-family="monospace">act(obs) — entry point</text>
  <line x1="340" y1="58" x2="340" y2="80" stroke="#888" stroke-width="1" marker-end="url(#arrow)"/>

  <!-- MODULE 1: STATE -->
  <rect x="40" y="80" width="600" height="26" rx="5" fill="#3b2f6e" stroke="#6644bb" stroke-width="0.8"/>
  <text x="340" y="97" text-anchor="middle" fill="#b8a8f0" font-size="12" font-family="sans-serif" font-weight="bold">📦  Module 1 — State &amp; Helpers</text>

  <rect x="44" y="116" width="132" height="48" rx="5" fill="#2e2550" stroke="#6644bb" stroke-width="0.6"/>
  <text x="110" y="135" text-anchor="middle" fill="#c8b8ff" font-size="12" font-family="monospace" font-weight="bold">parse_state</text>
  <text x="110" y="152" text-anchor="middle" fill="#9988cc" font-size="10" font-family="sans-serif">Đọc me, enemies</text>

  <rect x="188" y="116" width="144" height="48" rx="5" fill="#2e2550" stroke="#6644bb" stroke-width="0.6"/>
  <text x="260" y="135" text-anchor="middle" fill="#c8b8ff" font-size="12" font-family="monospace" font-weight="bold">track_history</text>
  <text x="260" y="152" text-anchor="middle" fill="#9988cc" font-size="10" font-family="sans-serif">Nhớ pos địch qua step</text>

  <rect x="344" y="116" width="132" height="48" rx="5" fill="#2e2550" stroke="#6644bb" stroke-width="0.6"/>
  <text x="410" y="135" text-anchor="middle" fill="#c8b8ff" font-size="12" font-family="monospace" font-weight="bold">passable</text>
  <text x="410" y="152" text-anchor="middle" fill="#9988cc" font-size="10" font-family="sans-serif">Ô có đi được không</text>

  <rect x="488" y="116" width="148" height="48" rx="5" fill="#2e2550" stroke="#6644bb" stroke-width="0.6"/>
  <text x="562" y="135" text-anchor="middle" fill="#c8b8ff" font-size="12" font-family="monospace" font-weight="bold">next_pos</text>
  <text x="562" y="152" text-anchor="middle" fill="#9988cc" font-size="10" font-family="sans-serif">Tính ô kế tiếp</text>

  <line x1="340" y1="106" x2="340" y2="116" stroke="#888" stroke-width="1" marker-end="url(#arrow)"/>
  <line x1="340" y1="164" x2="340" y2="188" stroke="#888" stroke-width="1" marker-end="url(#arrow)"/>

  <!-- MODULE 2: DANGER -->
  <rect x="40" y="188" width="600" height="26" rx="5" fill="#6e2f2f" stroke="#cc4444" stroke-width="0.8"/>
  <text x="340" y="205" text-anchor="middle" fill="#f0a8a8" font-size="12" font-family="sans-serif" font-weight="bold">💣  Module 2 — Danger Map</text>

  <rect x="44" y="224" width="172" height="48" rx="5" fill="#4a1f1f" stroke="#cc4444" stroke-width="0.6"/>
  <text x="130" y="243" text-anchor="middle" fill="#ffb8b8" font-size="12" font-family="monospace" font-weight="bold">get_blast</text>
  <text x="130" y="260" text-anchor="middle" fill="#cc8888" font-size="10" font-family="sans-serif">Blast 1 quả bom</text>

  <rect x="228" y="224" width="192" height="48" rx="5" fill="#4a1f1f" stroke="#cc4444" stroke-width="0.6"/>
  <text x="324" y="243" text-anchor="middle" fill="#ffb8b8" font-size="12" font-family="monospace" font-weight="bold">build_danger_map</text>
  <text x="324" y="260" text-anchor="middle" fill="#cc8888" font-size="10" font-family="sans-serif">Tất cả bom → timer map</text>

  <rect x="432" y="224" width="204" height="48" rx="5" fill="#4a1f1f" stroke="#cc4444" stroke-width="0.6"/>
  <text x="534" y="243" text-anchor="middle" fill="#ffb8b8" font-size="12" font-family="monospace" font-weight="bold">simulate_chain</text>
  <text x="534" y="260" text-anchor="middle" fill="#cc8888" font-size="10" font-family="sans-serif">Chain reaction đầy đủ</text>

  <line x1="216" y1="248" x2="228" y2="248" stroke="#aaa" stroke-width="0.6" stroke-dasharray="3 2" marker-end="url(#arrow-dep)"/>
  <path d="M216 260 Q330 285 432 260" fill="none" stroke="#aaa" stroke-width="0.6" stroke-dasharray="3 2" marker-end="url(#arrow-dep)"/>

  <line x1="340" y1="272" x2="340" y2="298" stroke="#888" stroke-width="1" marker-end="url(#arrow)"/>

  <!-- MODULE 3: ESCAPE -->
  <rect x="40" y="298" width="600" height="26" rx="5" fill="#5c4a10" stroke="#cc9922" stroke-width="0.8"/>
  <text x="340" y="315" text-anchor="middle" fill="#f0d888" font-size="12" font-family="sans-serif" font-weight="bold">🏃  Module 3 — Escape</text>

  <rect x="44" y="334" width="184" height="48" rx="5" fill="#3d3010" stroke="#cc9922" stroke-width="0.6"/>
  <text x="136" y="353" text-anchor="middle" fill="#ffe090" font-size="12" font-family="monospace" font-weight="bold">escape_smart</text>
  <text x="136" y="370" text-anchor="middle" fill="#aa8844" font-size="10" font-family="sans-serif">BFS + scoring ô an toàn</text>

  <rect x="240" y="334" width="200" height="48" rx="5" fill="#3d3010" stroke="#cc9922" stroke-width="0.6"/>
  <text x="340" y="353" text-anchor="middle" fill="#ffe090" font-size="12" font-family="monospace" font-weight="bold">can_escape_after_bomb</text>
  <text x="340" y="370" text-anchor="middle" fill="#aa8844" font-size="10" font-family="sans-serif">Check thoát sau đặt bom</text>

  <rect x="452" y="334" width="184" height="48" rx="5" fill="#3d3010" stroke="#cc9922" stroke-width="0.6"/>
  <text x="544" y="353" text-anchor="middle" fill="#ffe090" font-size="12" font-family="monospace" font-weight="bold">evaluate_safe_tile</text>
  <text x="544" y="370" text-anchor="middle" fill="#aa8844" font-size="10" font-family="sans-serif">Chấm điểm ô thoát</text>

  <path d="M228 352 Q340 385 452 360" fill="none" stroke="#aaa" stroke-width="0.6" stroke-dasharray="3 2" marker-end="url(#arrow-dep)"/>

  <line x1="340" y1="382" x2="340" y2="408" stroke="#888" stroke-width="1" marker-end="url(#arrow)"/>

  <!-- MODULE 4: ATTACK -->
  <rect x="40" y="408" width="600" height="26" rx="5" fill="#5c2f20" stroke="#cc6633" stroke-width="0.8"/>
  <text x="340" y="425" text-anchor="middle" fill="#f0b898" font-size="12" font-family="sans-serif" font-weight="bold">⚔️  Module 4 — Attack</text>

  <rect x="44" y="444" width="172" height="48" rx="5" fill="#3d1f14" stroke="#cc6633" stroke-width="0.6"/>
  <text x="130" y="463" text-anchor="middle" fill="#ffcca8" font-size="12" font-family="monospace" font-weight="bold">evaluate_bomb</text>
  <text x="130" y="480" text-anchor="middle" fill="#aa6644" font-size="10" font-family="sans-serif">Score đặt bom đơn</text>

  <rect x="228" y="444" width="184" height="48" rx="5" fill="#3d1f14" stroke="#cc6633" stroke-width="0.6"/>
  <text x="320" y="463" text-anchor="middle" fill="#ffcca8" font-size="12" font-family="monospace" font-weight="bold">evaluate_chain_bomb</text>
  <text x="320" y="480" text-anchor="middle" fill="#aa6644" font-size="10" font-family="sans-serif">Score chain reaction</text>

  <rect x="424" y="444" width="212" height="48" rx="5" fill="#3d1f14" stroke="#cc6633" stroke-width="0.6"/>
  <text x="530" y="463" text-anchor="middle" fill="#ffcca8" font-size="12" font-family="monospace" font-weight="bold">count_triggered_bombs</text>
  <text x="530" y="480" text-anchor="middle" fill="#aa6644" font-size="10" font-family="sans-serif">Bom địch bị kích sớm</text>

  <path d="M320 492 Q320 506 530 492" fill="none" stroke="#aaa" stroke-width="0.6" stroke-dasharray="3 2" marker-end="url(#arrow-dep)"/>

  <!-- cross: evaluate_chain_bomb → simulate_chain (up to module 2) -->
  <path d="M412 444 C412 290 534 272 534 272" fill="none" stroke="#aaa" stroke-width="0.6" stroke-dasharray="3 2" marker-end="url(#arrow-dep)"/>

  <line x1="340" y1="492" x2="340" y2="518" stroke="#888" stroke-width="1" marker-end="url(#arrow)"/>

  <!-- MODULE 5: TRAP -->
  <rect x="40" y="518" width="600" height="26" rx="5" fill="#1f4a28" stroke="#44aa55" stroke-width="0.8"/>
  <text x="340" y="535" text-anchor="middle" fill="#88f0a0" font-size="12" font-family="sans-serif" font-weight="bold">🪤  Module 5 — Trap</text>

  <rect x="44" y="554" width="184" height="48" rx="5" fill="#143320" stroke="#44aa55" stroke-width="0.6"/>
  <text x="136" y="573" text-anchor="middle" fill="#a0ffa8" font-size="12" font-family="monospace" font-weight="bold">find_trap_move</text>
  <text x="136" y="590" text-anchor="middle" fill="#558866" font-size="10" font-family="sans-serif">Tìm move dồn địch</text>

  <rect x="240" y="554" width="196" height="48" rx="5" fill="#143320" stroke="#44aa55" stroke-width="0.6"/>
  <text x="338" y="573" text-anchor="middle" fill="#a0ffa8" font-size="12" font-family="monospace" font-weight="bold">count_exits</text>
  <text x="338" y="590" text-anchor="middle" fill="#558866" font-size="10" font-family="sans-serif">Số lối thoát của địch</text>

  <rect x="448" y="554" width="188" height="48" rx="5" fill="#143320" stroke="#44aa55" stroke-width="0.6"/>
  <text x="542" y="573" text-anchor="middle" fill="#a0ffa8" font-size="12" font-family="monospace" font-weight="bold">is_enemy_trapped</text>
  <text x="542" y="590" text-anchor="middle" fill="#558866" font-size="10" font-family="sans-serif">Địch đang bị kẹp?</text>

  <line x1="228" y1="572" x2="240" y2="572" stroke="#aaa" stroke-width="0.6" stroke-dasharray="3 2" marker-end="url(#arrow-dep)"/>
  <line x1="436" y1="572" x2="448" y2="572" stroke="#aaa" stroke-width="0.6" stroke-dasharray="3 2" marker-end="url(#arrow-dep)"/>

  <line x1="340" y1="602" x2="340" y2="628" stroke="#888" stroke-width="1" marker-end="url(#arrow)"/>

  <!-- MODULE 6: NAVIGATION -->
  <rect x="40" y="628" width="600" height="26" rx="5" fill="#1a3a5c" stroke="#3388cc" stroke-width="0.8"/>
  <text x="340" y="645" text-anchor="middle" fill="#88c8f0" font-size="12" font-family="sans-serif" font-weight="bold">🧭  Module 6 — Navigation</text>

  <rect x="44" y="664" width="176" height="48" rx="5" fill="#102840" stroke="#3388cc" stroke-width="0.6"/>
  <text x="132" y="683" text-anchor="middle" fill="#a8d8ff" font-size="12" font-family="monospace" font-weight="bold">find_best_target</text>
  <text x="132" y="700" text-anchor="middle" fill="#4488aa" font-size="10" font-family="sans-serif">Item / box / gần địch</text>

  <rect x="232" y="664" width="196" height="48" rx="5" fill="#102840" stroke="#3388cc" stroke-width="0.6"/>
  <text x="330" y="683" text-anchor="middle" fill="#a8d8ff" font-size="12" font-family="monospace" font-weight="bold">move_to_target</text>
  <text x="330" y="700" text-anchor="middle" fill="#4488aa" font-size="10" font-family="sans-serif">BFS đến mục tiêu</text>

  <rect x="440" y="664" width="196" height="48" rx="5" fill="#102840" stroke="#3388cc" stroke-width="0.6"/>
  <text x="538" y="683" text-anchor="middle" fill="#a8d8ff" font-size="12" font-family="monospace" font-weight="bold">bfs_best_target</text>
  <text x="538" y="700" text-anchor="middle" fill="#4488aa" font-size="10" font-family="sans-serif">BFS multi-target scored</text>

  <line x1="220" y1="682" x2="232" y2="682" stroke="#aaa" stroke-width="0.6" stroke-dasharray="3 2" marker-end="url(#arrow-dep)"/>
  <path d="M330 712 Q390 730 538 712" fill="none" stroke="#aaa" stroke-width="0.6" stroke-dasharray="3 2" marker-end="url(#arrow-dep)"/>

  <line x1="340" y1="712" x2="340" y2="740" stroke="#888" stroke-width="1" marker-end="url(#arrow)"/>

  <!-- END -->
  <rect x="220" y="740" width="240" height="40" rx="20" fill="#3a3a5c" stroke="#6666aa" stroke-width="0.8"/>
  <text x="340" y="765" text-anchor="middle" fill="#ccc" font-size="13" font-family="monospace">Trả về action [0 – 5]</text>

  <!-- LEGEND -->
  <rect x="40" y="804" width="600" height="72" rx="8" fill="none" stroke="#444" stroke-width="0.6"/>
  <text x="340" y="824" text-anchor="middle" fill="#888" font-size="11" font-family="sans-serif">Legend</text>

  <line x1="70" y1="848" x2="120" y2="848" stroke="#888" stroke-width="1" marker-end="url(#arrow)"/>
  <text x="128" y="852" fill="#aaa" font-size="11" font-family="sans-serif">Luồng chính act()</text>

  <line x1="290" y1="848" x2="340" y2="848" stroke="#aaa" stroke-width="0.8" stroke-dasharray="3 2" marker-end="url(#arrow-dep)"/>
  <text x="348" y="852" fill="#aaa" font-size="11" font-family="sans-serif">Hàm A gọi hàm B (cross-module)</text>

  <!-- TOTAL COUNT -->
  <text x="340" y="900" text-anchor="middle" fill="#666" font-size="11" font-family="sans-serif">Tổng: 6 module · 18 hàm</text>
</svg>
